<svg width="265" height="50" viewBox="0 0 265 50" fill="none" xmlns="http://www.w3.org/2000/svg">
<path d="M21.65 31.45C19.6167 31.9167 17.7167 32.3167 15.95 32.65C14.1833 32.95 12.35 33.1 10.45 33.1C9.65 33.1 8.78333 33.0667 7.85 33C6.91667 32.9 6 32.7 5.1 32.4C4.2 32.1 3.36667 31.6833 2.6 31.15C1.83333 30.6167 1.2 29.9 0.7 29C0.833334 28.5333 1.13333 28.0333 1.6 27.5C2.1 26.9667 2.66667 26.4167 3.3 25.85C3.93333 25.25 4.6 24.6667 5.3 24.1C6.03333 23.5333 6.71667 22.9667 7.35 22.4C8.28333 21.5667 9.11667 20.75 9.85 19.95C10.6167 19.1167 11.35 18.25 12.05 17.35C12.7833 16.4167 13.5333 15.3833 14.3 14.25C15.0667 13.0833 15.9333 11.7333 16.9 10.2C17.7 10.2 18.45 10.3333 19.15 10.6C19.85 10.8333 20.45 11.15 20.95 11.55C21.4833 11.9167 21.9 12.3333 22.2 12.8C22.5 13.2667 22.65 13.7333 22.65 14.2C22.65 14.5667 22.6167 14.9333 22.55 15.3C22.4833 15.6667 22.4167 16.0167 22.35 16.35C22.15 16.1833 21.9167 16.1 21.65 16.1C21.3167 16.1 20.8 16.35 20.1 16.85C19.4 17.35 18.6 18 17.7 18.8C16.8 19.5667 15.8333 20.45 14.8 21.45C13.8 22.45 12.8 23.45 11.8 24.45C10.8 25.4167 9.86667 26.3333 9 27.2C8.13333 28.0667 7.4 28.7833 6.8 29.35C7.03333 29.5167 7.3 29.6667 7.6 29.8C7.9 29.9333 8.28333 30.05 8.75 30.15C9.21667 30.25 9.8 30.3333 10.5 30.4C11.2 30.4333 12.0667 30.45 13.1 30.45C13.7667 30.45 14.5167 30.4167 15.35 30.35C16.2167 30.2833 17.0667 30.2 17.9 30.1C18.7333 30 19.5167 29.9 20.25 29.8C21.0167 29.7 21.65 29.6 22.15 29.5C22.1833 29.6 22.2 29.7333 22.2 29.9C22.2 30.1667 22.1333 30.45 22 30.75C21.9 31.05 21.7833 31.2833 21.65 31.45ZM57.7813 3.85C54.9813 8.75 52.0479 13.5167 48.9813 18.15C45.9146 22.7833 42.8313 27.1 39.7313 31.1C36.6313 35.1 33.5979 38.7 30.6313 41.9C27.6646 45.1 24.8979 47.7 22.3313 49.7C21.9646 49.6333 21.5479 49.3667 21.0813 48.9C20.6479 48.4667 20.3646 47.9667 20.2312 47.4C21.4646 46.6667 22.7979 45.5833 24.2313 44.15C25.6979 42.7167 27.2146 41.05 28.7813 39.15C30.3813 37.25 31.9979 35.1667 33.6312 32.9C35.2979 30.6333 36.9146 28.3 38.4813 25.9C40.0479 23.5 41.5479 21.1 42.9813 18.7C44.4479 16.2667 45.7646 13.95 46.9313 11.75C48.1313 9.55 49.1646 7.53333 50.0313 5.7C50.8979 3.83333 51.5479 2.25 51.9813 0.949997C52.3813 0.949997 52.8813 1.05 53.4813 1.25C54.1146 1.45 54.7313 1.7 55.3313 2C55.9313 2.3 56.4646 2.61667 56.9313 2.95C57.3979 3.28333 57.6813 3.58333 57.7813 3.85ZM56.4273 38.4C56.9273 37.3 57.5273 35.8833 58.2273 34.15C58.9273 32.4167 59.6607 30.55 60.4273 28.55C61.194 26.5167 61.9773 24.45 62.7773 22.35C63.5773 20.2167 64.3273 18.2 65.0273 16.3C65.7273 14.4 66.3273 12.7 66.8273 11.2C67.3607 9.7 67.744 8.55 67.9773 7.75C65.8773 8.61666 64.0773 9.93333 62.5773 11.7C61.0773 13.4667 59.944 15.6833 59.1773 18.35C58.4107 18.0833 57.7107 17.6167 57.0773 16.95C56.444 16.25 56.0273 15.3833 55.8273 14.35C56.1607 12.8167 56.7773 11.4167 57.6773 10.15C58.6107 8.88333 59.7773 7.8 61.1773 6.9C62.5773 6 64.194 5.31666 66.0273 4.85C67.8607 4.35 69.8273 4.1 71.9273 4.1C74.594 4.1 77.044 4.5 79.2773 5.3C81.5107 6.06666 83.4273 7.15 85.0273 8.55C86.6273 9.95 87.8773 11.6333 88.7773 13.6C89.6773 15.5667 90.1273 17.75 90.1273 20.15C90.1273 23.4167 89.5273 26.5333 88.3273 29.5C87.1273 32.4667 85.494 35.0833 83.4273 37.35C81.394 39.6167 79.0273 41.4167 76.3273 42.75C73.6273 44.1167 70.794 44.8 67.8273 44.8C65.094 44.8 62.744 44.25 60.7773 43.15C58.844 42.0833 57.394 40.5 56.4273 38.4ZM74.0773 6.6C72.4107 6.6 70.8273 6.83333 69.3273 7.3C70.794 7.83333 72.0107 8.4 72.9773 9C73.944 9.56667 74.6107 10.0167 74.9773 10.35C74.7107 10.7167 74.3107 11.3667 73.7773 12.3C73.2773 13.2333 72.6773 14.3667 71.9773 15.7C71.3107 17.0333 70.594 18.5 69.8273 20.1C69.0607 21.6667 68.3107 23.2833 67.5773 24.95C65.6773 29.1833 64.294 32.5167 63.4273 34.95C62.594 37.3833 62.1773 39.0667 62.1773 40C62.644 40.1667 63.2107 40.2833 63.8773 40.35C64.544 40.4167 65.2607 40.45 66.0273 40.45C68.7273 40.45 71.2773 39.8333 73.6773 38.6C76.1107 37.3333 78.2273 35.65 80.0273 33.55C81.8607 31.45 83.294 29.0167 84.3273 26.25C85.394 23.45 85.9273 20.5167 85.9273 17.45C85.9273 14.0167 84.8607 11.35 82.7273 9.45C80.594 7.55 77.7107 6.6 74.0773 6.6ZM109.693 20.3C109.56 22.3667 109.193 24.15 108.593 25.65C107.993 27.1167 107.127 28.4167 105.993 29.55C104.893 30.65 103.543 31.65 101.943 32.55C100.343 33.45 98.4767 34.3167 96.3434 35.15C96.3434 35.35 96.3267 35.5667 96.2934 35.8C96.2934 36 96.2934 36.2167 96.2934 36.45C96.2934 36.8833 96.3267 37.3333 96.3934 37.8C96.46 38.2667 96.5767 38.7 96.7434 39.1C96.91 39.5 97.1434 39.8333 97.4434 40.1C97.7434 40.3333 98.1267 40.45 98.5934 40.45C99.4934 40.45 100.377 40.25 101.243 39.85C102.11 39.45 102.927 38.9667 103.693 38.4C104.493 37.8 105.227 37.1667 105.893 36.5C106.593 35.8 107.21 35.1667 107.743 34.6C108.077 34.9 108.36 35.1833 108.593 35.45C107.093 37.45 105.443 39.1167 103.643 40.45C101.877 41.75 100.193 42.5833 98.5934 42.95C96.2934 42.6833 94.4934 41.85 93.1934 40.45C91.9267 39.0167 91.2934 37.3 91.2934 35.3C91.2934 33.9333 91.4767 32.55 91.8434 31.15C92.2434 29.7167 92.7767 28.35 93.4434 27.05C94.1434 25.7167 94.9434 24.4667 95.8434 23.3C96.7767 22.1333 97.76 21.1167 98.7934 20.25C99.86 19.3833 100.943 18.7 102.043 18.2C103.177 17.7 104.293 17.45 105.393 17.45C106.927 17.65 108.36 18.6 109.693 20.3ZM106.243 21.95C105.343 22.0833 104.41 22.45 103.443 23.05C102.477 23.65 101.56 24.45 100.693 25.45C99.86 26.45 99.0934 27.6167 98.3934 28.95C97.6934 30.2833 97.1434 31.7167 96.7434 33.25C99.41 31.9167 101.627 30.2833 103.393 28.35C105.16 26.3833 106.11 24.25 106.243 21.95ZM114.416 23.3C114.416 22.7 114.45 22.1333 114.516 21.6C114.616 21.0667 114.8 20.6167 115.066 20.25C115.333 19.85 115.7 19.55 116.166 19.35C116.633 19.1167 117.25 19 118.016 19C118.483 19 119 19.05 119.566 19.15C120.166 19.25 120.6 19.4333 120.866 19.7C120.733 20.2667 120.616 20.7667 120.516 21.2C120.45 21.6333 120.383 22.1167 120.316 22.65C120.283 23.15 120.25 23.7667 120.216 24.5C120.183 25.2 120.15 26.1167 120.116 27.25C120.05 29.5167 119.933 31.55 119.766 33.35C119.633 35.1167 119.3 36.8833 118.766 38.65C118.766 38.7833 118.816 38.85 118.916 38.85C119.416 38.4833 119.983 37.95 120.616 37.25C121.25 36.55 121.916 35.7667 122.616 34.9C123.316 34 124.016 33.05 124.716 32.05C125.416 31.05 126.066 30.0667 126.666 29.1C127.466 27.7 128.35 25.95 129.316 23.85C130.283 21.75 131.083 19.5 131.716 17.1C131.916 17.1 132.166 17.15 132.466 17.25C132.8 17.3167 133.116 17.4167 133.416 17.55C133.75 17.65 134.033 17.7667 134.266 17.9C134.533 18.0333 134.716 18.15 134.816 18.25C134.75 19.6833 134.4 21.15 133.766 22.65C133.166 24.15 132.433 25.6 131.566 27C130.7 28.4 129.783 29.7167 128.816 30.95C127.85 32.1833 126.966 33.25 126.166 34.15C124.566 36.0167 122.95 37.6833 121.316 39.15C119.716 40.6167 117.8 42.0333 115.566 43.4C114.7 43.0667 114.016 42.6167 113.516 42.05C113.016 41.5167 112.766 40.95 112.766 40.35C112.766 39.95 112.85 39.5 113.016 39C113.216 38.4667 113.433 37.8 113.666 37C113.9 36.1667 114.1 35.1333 114.266 33.9C114.466 32.6667 114.566 31.1 114.566 29.2C114.566 28.1 114.533 27 114.466 25.9C114.433 24.7667 114.416 23.9 114.416 23.3ZM154.147 44.7C154.081 44.7333 154.014 44.75 153.947 44.75C153.881 44.75 153.747 44.75 153.547 44.75C153.081 44.75 152.531 44.6667 151.897 44.5C151.297 44.3667 150.697 44.1833 150.097 43.95C149.531 43.75 149.031 43.5167 148.597 43.25C148.197 42.9833 147.947 42.75 147.847 42.55C147.814 42.0833 147.797 41.6 147.797 41.1C147.797 40.6 147.797 40.1167 147.797 39.65C147.797 35.9167 148.064 32.0167 148.597 27.95C149.164 23.8833 150.081 19.4833 151.347 14.75C151.481 14.2833 151.614 13.7 151.747 13C151.914 12.2667 152.081 11.4833 152.247 10.65C151.447 11.2833 150.497 12.3 149.397 13.7C148.297 15.0667 147.131 16.7 145.897 18.6C144.697 20.4667 143.481 22.5333 142.247 24.8C141.047 27.0333 139.947 29.3167 138.947 31.65C137.947 33.95 137.081 36.2333 136.347 38.5C135.647 40.7667 135.214 42.8667 135.047 44.8C133.447 44.3333 132.331 43.8667 131.697 43.4C131.097 42.9333 130.797 42.3667 130.797 41.7C130.797 41.1 130.981 40.25 131.347 39.15C131.714 38.05 132.231 36.75 132.897 35.25C133.564 33.75 134.381 32.0833 135.347 30.25C136.314 28.3833 137.381 26.3833 138.547 24.25C139.881 21.8167 141.181 19.5333 142.447 17.4C143.747 15.2667 145.014 13.3333 146.247 11.6C147.481 9.86667 148.681 8.36666 149.847 7.1C151.047 5.83333 152.231 4.86666 153.397 4.2C153.864 4.2 154.481 4.31666 155.247 4.55C156.047 4.78333 156.814 5.06666 157.547 5.4C158.314 5.73333 158.981 6.08333 159.547 6.45C160.147 6.78333 160.481 7.06666 160.547 7.3C160.081 8.23333 159.531 9.63333 158.897 11.5C158.264 13.3667 157.614 15.4833 156.947 17.85C156.314 20.2167 155.697 22.7333 155.097 25.4C154.531 28.0333 154.081 30.5667 153.747 33C154.514 31.1667 155.397 29.2667 156.397 27.3C157.431 25.3 158.514 23.3333 159.647 21.4C160.781 19.4333 161.931 17.5333 163.097 15.7C164.297 13.8667 165.464 12.2 166.597 10.7C167.731 9.16667 168.781 7.83333 169.747 6.7C170.747 5.56666 171.631 4.73333 172.397 4.2C172.864 4.2 173.481 4.31666 174.247 4.55C175.047 4.78333 175.814 5.06666 176.547 5.4C177.314 5.73333 177.981 6.08333 178.547 6.45C179.147 6.78333 179.481 7.06666 179.547 7.3C178.481 9.2 177.547 11.5167 176.747 14.25C175.947 16.9833 175.264 19.85 174.697 22.85C174.164 25.85 173.747 28.8333 173.447 31.8C173.181 34.7333 173.047 37.3667 173.047 39.7C173.047 40.4667 173.047 41.2667 173.047 42.1C173.047 42.9333 173.081 43.8 173.147 44.7C172.681 44.7 172.114 44.6333 171.447 44.5C170.814 44.4 170.181 44.25 169.547 44.05C168.947 43.85 168.397 43.6167 167.897 43.35C167.397 43.1167 167.047 42.85 166.847 42.55C166.814 42.0833 166.797 41.6 166.797 41.1C166.797 40.6 166.797 40.1167 166.797 39.65C166.797 35.9167 167.064 32.0167 167.597 27.95C168.164 23.8833 169.081 19.4833 170.347 14.75C170.481 14.2833 170.631 13.65 170.797 12.85C170.964 12.05 171.131 11.2167 171.297 10.35C170.364 10.8167 169.297 11.7167 168.097 13.05C166.931 14.35 165.731 15.95 164.497 17.85C163.297 19.7167 162.097 21.8 160.897 24.1C159.731 26.4 158.664 28.75 157.697 31.15C156.764 33.5167 155.964 35.8833 155.297 38.25C154.664 40.5833 154.281 42.7333 154.147 44.7ZM196.949 20.3C196.816 22.3667 196.449 24.15 195.849 25.65C195.249 27.1167 194.383 28.4167 193.249 29.55C192.149 30.65 190.799 31.65 189.199 32.55C187.599 33.45 185.733 34.3167 183.599 35.15C183.599 35.35 183.583 35.5667 183.549 35.8C183.549 36 183.549 36.2167 183.549 36.45C183.549 36.8833 183.583 37.3333 183.649 37.8C183.716 38.2667 183.833 38.7 183.999 39.1C184.166 39.5 184.399 39.8333 184.699 40.1C184.999 40.3333 185.383 40.45 185.849 40.45C186.749 40.45 187.633 40.25 188.499 39.85C189.366 39.45 190.183 38.9667 190.949 38.4C191.749 37.8 192.483 37.1667 193.149 36.5C193.849 35.8 194.466 35.1667 194.999 34.6C195.333 34.9 195.616 35.1833 195.849 35.45C194.349 37.45 192.699 39.1167 190.899 40.45C189.133 41.75 187.449 42.5833 185.849 42.95C183.549 42.6833 181.749 41.85 180.449 40.45C179.183 39.0167 178.549 37.3 178.549 35.3C178.549 33.9333 178.733 32.55 179.099 31.15C179.499 29.7167 180.033 28.35 180.699 27.05C181.399 25.7167 182.199 24.4667 183.099 23.3C184.033 22.1333 185.016 21.1167 186.049 20.25C187.116 19.3833 188.199 18.7 189.299 18.2C190.433 17.7 191.549 17.45 192.649 17.45C194.183 17.65 195.616 18.6 196.949 20.3ZM193.499 21.95C192.599 22.0833 191.666 22.45 190.699 23.05C189.733 23.65 188.816 24.45 187.949 25.45C187.116 26.45 186.349 27.6167 185.649 28.95C184.949 30.2833 184.399 31.7167 183.999 33.25C186.666 31.9167 188.883 30.2833 190.649 28.35C192.416 26.3833 193.366 24.25 193.499 21.95ZM217.164 20.3C217.031 22.3667 216.664 24.15 216.064 25.65C215.464 27.1167 214.597 28.4167 213.464 29.55C212.364 30.65 211.014 31.65 209.414 32.55C207.814 33.45 205.947 34.3167 203.814 35.15C203.814 35.35 203.797 35.5667 203.764 35.8C203.764 36 203.764 36.2167 203.764 36.45C203.764 36.8833 203.797 37.3333 203.864 37.8C203.931 38.2667 204.047 38.7 204.214 39.1C204.381 39.5 204.614 39.8333 204.914 40.1C205.214 40.3333 205.597 40.45 206.064 40.45C206.964 40.45 207.847 40.25 208.714 39.85C209.581 39.45 210.397 38.9667 211.164 38.4C211.964 37.8 212.697 37.1667 213.364 36.5C214.064 35.8 214.681 35.1667 215.214 34.6C215.547 34.9 215.831 35.1833 216.064 35.45C214.564 37.45 212.914 39.1167 211.114 40.45C209.347 41.75 207.664 42.5833 206.064 42.95C203.764 42.6833 201.964 41.85 200.664 40.45C199.397 39.0167 198.764 37.3 198.764 35.3C198.764 33.9333 198.947 32.55 199.314 31.15C199.714 29.7167 200.247 28.35 200.914 27.05C201.614 25.7167 202.414 24.4667 203.314 23.3C204.247 22.1333 205.231 21.1167 206.264 20.25C207.331 19.3833 208.414 18.7 209.514 18.2C210.647 17.7 211.764 17.45 212.864 17.45C214.397 17.65 215.831 18.6 217.164 20.3ZM213.714 21.95C212.814 22.0833 211.881 22.45 210.914 23.05C209.947 23.65 209.031 24.45 208.164 25.45C207.331 26.45 206.564 27.6167 205.864 28.95C205.164 30.2833 204.614 31.7167 204.214 33.25C206.881 31.9167 209.097 30.2833 210.864 28.35C212.631 26.3833 213.581 24.25 213.714 21.95ZM222.087 21.85C221.92 21.65 221.77 21.2333 221.637 20.6C221.504 19.9333 221.437 19.3667 221.437 18.9C222.304 18.9667 223.137 19.0333 223.937 19.1C224.737 19.1333 225.47 19.1667 226.137 19.2C226.637 18.2 227.17 17.2167 227.737 16.25C228.337 15.25 228.904 14.35 229.437 13.55C230.004 12.7167 230.52 12.0167 230.987 11.45C231.487 10.8833 231.87 10.5167 232.137 10.35C232.47 10.35 232.887 10.4167 233.387 10.55C233.92 10.65 234.454 10.8 234.987 11C235.52 11.1667 236.004 11.35 236.437 11.55C236.87 11.75 237.17 11.95 237.337 12.15C236.337 13.4167 235.47 14.6 234.737 15.7C234.037 16.7667 233.27 18 232.437 19.4C233.104 19.4 233.77 19.3833 234.437 19.35C235.137 19.3167 235.837 19.2667 236.537 19.2C236.704 19.3667 236.837 19.5833 236.937 19.85C237.037 20.0833 237.087 20.3333 237.087 20.6C235.454 21.2 233.47 21.5333 231.137 21.6C230.304 23.2 229.554 24.8 228.887 26.4C228.254 27.9667 227.704 29.4833 227.237 30.95C226.804 32.4167 226.454 33.8 226.187 35.1C225.954 36.4 225.837 37.5667 225.837 38.6C225.837 40.0667 226.387 40.8833 227.487 41.05C228.487 40.9167 229.437 40.6667 230.337 40.3C231.237 39.9333 232.037 39.4667 232.737 38.9C232.937 39.2 233.054 39.45 233.087 39.65C232.887 39.95 232.537 40.3 232.037 40.7C231.57 41.1 231.054 41.4833 230.487 41.85C229.92 42.25 229.37 42.5833 228.837 42.85C228.304 43.1167 227.904 43.2667 227.637 43.3C226.804 43.2667 225.97 43.0833 225.137 42.75C224.304 42.4167 223.537 42 222.837 41.5C222.17 41 221.62 40.45 221.187 39.85C220.754 39.2167 220.537 38.6 220.537 38C220.537 37.2 220.637 36.2 220.837 35C221.07 33.7667 221.387 32.4333 221.787 31C222.187 29.5667 222.654 28.0667 223.187 26.5C223.72 24.9333 224.304 23.3833 224.937 21.85H222.087ZM247.765 13.5C249.199 13.9 250.549 14.4167 251.815 15.05C253.082 15.65 254.265 16.3333 255.365 17.1C256.499 17.8333 257.565 18.65 258.565 19.55C259.599 20.4167 260.599 21.3167 261.565 22.25C262.299 22.9833 262.999 23.9333 263.665 25.1C264.332 26.2333 264.665 27.4667 264.665 28.8C264.665 29.3 264.615 29.7667 264.515 30.2C264.082 30.4667 263.515 30.65 262.815 30.75C262.149 30.8167 261.399 30.85 260.565 30.85C259.599 30.85 258.599 30.8333 257.565 30.8C256.532 30.7333 255.565 30.7 254.665 30.7C253.465 30.7 252.332 30.75 251.265 30.85C250.232 30.95 249.149 31.1167 248.015 31.35C246.882 31.55 245.665 31.8167 244.365 32.15C243.099 32.4833 241.615 32.8833 239.915 33.35C238.815 31.8167 238.265 30.5 238.265 29.4C238.265 28.4 238.715 27.6667 239.615 27.2C240.549 26.7 241.782 26.4167 243.315 26.35C244.415 26.3167 245.749 26.2833 247.315 26.25C248.915 26.1833 250.515 26.1333 252.115 26.1C253.749 26.0333 255.282 25.9833 256.715 25.95C258.182 25.9167 259.349 25.9 260.215 25.9C260.149 25.6 260.049 25.3167 259.915 25.05C259.815 24.7833 259.615 24.4833 259.315 24.15C259.049 23.7833 258.682 23.3667 258.215 22.9C257.782 22.4 257.215 21.8 256.515 21.1C255.849 20.4667 255.099 19.8333 254.265 19.2C253.465 18.5333 252.615 17.9167 251.715 17.35C250.815 16.7833 249.882 16.2667 248.915 15.8C247.949 15.3333 246.999 14.95 246.065 14.65C246.165 14.3833 246.399 14.1333 246.765 13.9C247.165 13.6667 247.499 13.5333 247.765 13.5Z" fill="#4F46E5"/>
</svg>
