<svg width="318" height="60" viewBox="0 0 318 60" fill="none" xmlns="http://www.w3.org/2000/svg">
<path d="M25.98 37.54C23.54 38.1 21.26 38.58 19.14 38.98C17.02 39.34 14.82 39.52 12.54 39.52C11.58 39.52 10.54 39.48 9.42 39.4C8.3 39.28 7.2 39.04 6.12 38.68C5.04 38.32 4.04 37.82 3.12 37.18C2.2 36.54 1.44 35.68 0.84 34.6C1 34.04 1.36 33.44 1.92 32.8C2.52 32.16 3.2 31.5 3.96 30.82C4.72 30.1 5.52 29.4 6.36 28.72C7.24 28.04 8.06 27.36 8.82 26.68C9.94 25.68 10.94 24.7 11.82 23.74C12.74 22.74 13.62 21.7 14.46 20.62C15.34 19.5 16.24 18.26 17.16 16.9C18.08 15.5 19.12 13.88 20.28 12.04C21.24 12.04 22.14 12.2 22.98 12.52C23.82 12.8 24.54 13.18 25.14 13.66C25.78 14.1 26.28 14.6 26.64 15.16C27 15.72 27.18 16.28 27.18 16.84C27.18 17.28 27.14 17.72 27.06 18.16C26.98 18.6 26.9 19.02 26.82 19.42C26.58 19.22 26.3 19.12 25.98 19.12C25.58 19.12 24.96 19.42 24.12 20.02C23.28 20.62 22.32 21.4 21.24 22.36C20.16 23.28 19 24.34 17.76 25.54C16.56 26.74 15.36 27.94 14.16 29.14C12.96 30.3 11.84 31.4 10.8 32.44C9.76 33.48 8.88 34.34 8.16 35.02C8.44 35.22 8.76 35.4 9.12 35.56C9.48 35.72 9.94 35.86 10.5 35.98C11.06 36.1 11.76 36.2 12.6 36.28C13.44 36.32 14.48 36.34 15.72 36.34C16.52 36.34 17.42 36.3 18.42 36.22C19.46 36.14 20.48 36.04 21.48 35.92C22.48 35.8 23.42 35.68 24.3 35.56C25.22 35.44 25.98 35.32 26.58 35.2C26.62 35.32 26.64 35.48 26.64 35.68C26.64 36 26.56 36.34 26.4 36.7C26.28 37.06 26.14 37.34 25.98 37.54ZM69.3375 4.42C65.9775 10.3 62.4575 16.02 58.7775 21.58C55.0975 27.14 51.3975 32.32 47.6775 37.12C43.9575 41.92 40.3175 46.24 36.7575 50.08C33.1975 53.92 29.8775 57.04 26.7975 59.44C26.3575 59.36 25.8575 59.04 25.2975 58.48C24.7775 57.96 24.4375 57.36 24.2775 56.68C25.7575 55.8 27.3575 54.5 29.0775 52.78C30.8375 51.06 32.6575 49.06 34.5375 46.78C36.4575 44.5 38.3975 42 40.3575 39.28C42.3575 36.56 44.2975 33.76 46.1775 30.88C48.0575 28 49.8575 25.12 51.5775 22.24C53.3375 19.32 54.9175 16.54 56.3175 13.9C57.7575 11.26 58.9975 8.84 60.0375 6.64C61.0775 4.4 61.8575 2.5 62.3775 0.939996C62.8575 0.939996 63.4575 1.06 64.1775 1.3C64.9375 1.54 65.6775 1.84 66.3975 2.2C67.1175 2.56 67.7575 2.94 68.3175 3.34C68.8775 3.74 69.2175 4.1 69.3375 4.42ZM67.7128 45.88C68.3128 44.56 69.0328 42.86 69.8728 40.78C70.7128 38.7 71.5928 36.46 72.5128 34.06C73.4328 31.62 74.3728 29.14 75.3328 26.62C76.2928 24.06 77.1928 21.64 78.0328 19.36C78.8728 17.08 79.5928 15.04 80.1928 13.24C80.8328 11.44 81.2928 10.06 81.5728 9.1C79.0528 10.14 76.8928 11.72 75.0928 13.84C73.2928 15.96 71.9328 18.62 71.0128 21.82C70.0928 21.5 69.2528 20.94 68.4928 20.14C67.7328 19.3 67.2328 18.26 66.9928 17.02C67.3928 15.18 68.1328 13.5 69.2128 11.98C70.3328 10.46 71.7328 9.16 73.4128 8.08C75.0928 7 77.0328 6.18 79.2328 5.62C81.4328 5.02 83.7928 4.72 86.3128 4.72C89.5128 4.72 92.4528 5.2 95.1328 6.16C97.8128 7.08 100.113 8.38 102.033 10.06C103.953 11.74 105.453 13.76 106.533 16.12C107.613 18.48 108.153 21.1 108.153 23.98C108.153 27.9 107.433 31.64 105.993 35.2C104.553 38.76 102.593 41.9 100.113 44.62C97.6728 47.34 94.8328 49.5 91.5928 51.1C88.3528 52.74 84.9528 53.56 81.3928 53.56C78.1128 53.56 75.2928 52.9 72.9328 51.58C70.6128 50.3 68.8728 48.4 67.7128 45.88ZM88.8928 7.72C86.8928 7.72 84.9928 8 83.1928 8.56C84.9528 9.2 86.4128 9.88 87.5728 10.6C88.7328 11.28 89.5328 11.82 89.9728 12.22C89.6528 12.66 89.1728 13.44 88.5328 14.56C87.9328 15.68 87.2128 17.04 86.3728 18.64C85.5728 20.24 84.7128 22 83.7928 23.92C82.8728 25.8 81.9728 27.74 81.0928 29.74C78.8128 34.82 77.1528 38.82 76.1128 41.74C75.1128 44.66 74.6128 46.68 74.6128 47.8C75.1728 48 75.8528 48.14 76.6528 48.22C77.4528 48.3 78.3128 48.34 79.2328 48.34C82.4728 48.34 85.5328 47.6 88.4128 46.12C91.3328 44.6 93.8728 42.58 96.0328 40.06C98.2328 37.54 99.9528 34.62 101.193 31.3C102.473 27.94 103.113 24.42 103.113 20.74C103.113 16.62 101.833 13.42 99.2728 11.14C96.7128 8.86 93.2528 7.72 88.8928 7.72ZM131.632 24.16C131.472 26.64 131.032 28.78 130.312 30.58C129.592 32.34 128.552 33.9 127.192 35.26C125.872 36.58 124.252 37.78 122.332 38.86C120.412 39.94 118.172 40.98 115.612 41.98C115.612 42.22 115.592 42.48 115.552 42.76C115.552 43 115.552 43.26 115.552 43.54C115.552 44.06 115.592 44.6 115.672 45.16C115.752 45.72 115.892 46.24 116.092 46.72C116.292 47.2 116.572 47.6 116.932 47.92C117.292 48.2 117.752 48.34 118.312 48.34C119.392 48.34 120.452 48.1 121.492 47.62C122.532 47.14 123.512 46.56 124.432 45.88C125.392 45.16 126.272 44.4 127.072 43.6C127.912 42.76 128.652 42 129.292 41.32C129.692 41.68 130.032 42.02 130.312 42.34C128.512 44.74 126.532 46.74 124.372 48.34C122.252 49.9 120.232 50.9 118.312 51.34C115.552 51.02 113.392 50.02 111.832 48.34C110.312 46.62 109.552 44.56 109.552 42.16C109.552 40.52 109.772 38.86 110.212 37.18C110.692 35.46 111.332 33.82 112.132 32.26C112.972 30.66 113.932 29.16 115.012 27.76C116.132 26.36 117.312 25.14 118.552 24.1C119.832 23.06 121.132 22.24 122.452 21.64C123.812 21.04 125.152 20.74 126.472 20.74C128.312 20.98 130.032 22.12 131.632 24.16ZM127.492 26.14C126.412 26.3 125.292 26.74 124.132 27.46C122.972 28.18 121.872 29.14 120.832 30.34C119.832 31.54 118.912 32.94 118.072 34.54C117.232 36.14 116.572 37.86 116.092 39.7C119.292 38.1 121.952 36.14 124.072 33.82C126.192 31.46 127.332 28.9 127.492 26.14ZM137.3 27.76C137.3 27.04 137.34 26.36 137.42 25.72C137.54 25.08 137.76 24.54 138.08 24.1C138.4 23.62 138.84 23.26 139.4 23.02C139.96 22.74 140.7 22.6 141.62 22.6C142.18 22.6 142.8 22.66 143.48 22.78C144.2 22.9 144.72 23.12 145.04 23.44C144.88 24.12 144.74 24.72 144.62 25.24C144.54 25.76 144.46 26.34 144.38 26.98C144.34 27.58 144.3 28.32 144.26 29.2C144.22 30.04 144.18 31.14 144.14 32.5C144.06 35.22 143.92 37.66 143.72 39.82C143.56 41.94 143.16 44.06 142.52 46.18C142.52 46.34 142.58 46.42 142.7 46.42C143.3 45.98 143.98 45.34 144.74 44.5C145.5 43.66 146.3 42.72 147.14 41.68C147.98 40.6 148.82 39.46 149.66 38.26C150.5 37.06 151.28 35.88 152 34.72C152.96 33.04 154.02 30.94 155.18 28.42C156.34 25.9 157.3 23.2 158.06 20.32C158.3 20.32 158.6 20.38 158.96 20.5C159.36 20.58 159.74 20.7 160.1 20.86C160.5 20.98 160.84 21.12 161.12 21.28C161.44 21.44 161.66 21.58 161.78 21.7C161.7 23.42 161.28 25.18 160.52 26.98C159.8 28.78 158.92 30.52 157.88 32.2C156.84 33.88 155.74 35.46 154.58 36.94C153.42 38.42 152.36 39.7 151.4 40.78C149.48 43.02 147.54 45.02 145.58 46.78C143.66 48.54 141.36 50.24 138.68 51.88C137.64 51.48 136.82 50.94 136.22 50.26C135.62 49.62 135.32 48.94 135.32 48.22C135.32 47.74 135.42 47.2 135.62 46.6C135.86 45.96 136.12 45.16 136.4 44.2C136.68 43.2 136.92 41.96 137.12 40.48C137.36 39 137.48 37.12 137.48 34.84C137.48 33.52 137.44 32.2 137.36 30.88C137.32 29.52 137.3 28.48 137.3 27.76ZM184.977 53.44C184.897 53.48 184.817 53.5 184.737 53.5C184.657 53.5 184.497 53.5 184.257 53.5C183.697 53.5 183.037 53.4 182.277 53.2C181.557 53.04 180.837 52.82 180.117 52.54C179.437 52.3 178.837 52.02 178.317 51.7C177.837 51.38 177.537 51.1 177.417 50.86C177.377 50.3 177.357 49.72 177.357 49.12C177.357 48.52 177.357 47.94 177.357 47.38C177.357 42.9 177.677 38.22 178.317 33.34C178.997 28.46 180.097 23.18 181.617 17.5C181.777 16.94 181.937 16.24 182.097 15.4C182.297 14.52 182.497 13.58 182.697 12.58C181.737 13.34 180.597 14.56 179.277 16.24C177.957 17.88 176.557 19.84 175.077 22.12C173.637 24.36 172.177 26.84 170.697 29.56C169.257 32.24 167.937 34.98 166.737 37.78C165.537 40.54 164.497 43.28 163.617 46C162.777 48.72 162.257 51.24 162.057 53.56C160.137 53 158.797 52.44 158.037 51.88C157.317 51.32 156.957 50.64 156.957 49.84C156.957 49.12 157.177 48.1 157.617 46.78C158.057 45.46 158.677 43.9 159.477 42.1C160.277 40.3 161.257 38.3 162.417 36.1C163.577 33.86 164.857 31.46 166.257 28.9C167.857 25.98 169.417 23.24 170.937 20.68C172.497 18.12 174.017 15.8 175.497 13.72C176.977 11.64 178.417 9.84 179.817 8.32C181.257 6.8 182.677 5.64 184.077 4.84C184.637 4.84 185.377 4.98 186.297 5.26C187.257 5.54 188.177 5.88 189.057 6.28C189.977 6.68 190.777 7.1 191.457 7.54C192.177 7.94 192.577 8.28 192.657 8.56C192.097 9.68 191.437 11.36 190.677 13.6C189.917 15.84 189.137 18.38 188.337 21.22C187.577 24.06 186.837 27.08 186.117 30.28C185.437 33.44 184.897 36.48 184.497 39.4C185.417 37.2 186.477 34.92 187.677 32.56C188.917 30.16 190.217 27.8 191.577 25.48C192.937 23.12 194.317 20.84 195.717 18.64C197.157 16.44 198.557 14.44 199.917 12.64C201.277 10.8 202.537 9.2 203.697 7.84C204.897 6.48 205.957 5.48 206.877 4.84C207.437 4.84 208.177 4.98 209.097 5.26C210.057 5.54 210.977 5.88 211.857 6.28C212.777 6.68 213.577 7.1 214.257 7.54C214.977 7.94 215.377 8.28 215.457 8.56C214.177 10.84 213.057 13.62 212.097 16.9C211.137 20.18 210.317 23.62 209.637 27.22C208.997 30.82 208.497 34.4 208.137 37.96C207.817 41.48 207.657 44.64 207.657 47.44C207.657 48.36 207.657 49.32 207.657 50.32C207.657 51.32 207.697 52.36 207.777 53.44C207.217 53.44 206.537 53.36 205.737 53.2C204.977 53.08 204.217 52.9 203.457 52.66C202.737 52.42 202.077 52.14 201.477 51.82C200.877 51.54 200.457 51.22 200.217 50.86C200.177 50.3 200.157 49.72 200.157 49.12C200.157 48.52 200.157 47.94 200.157 47.38C200.157 42.9 200.477 38.22 201.117 33.34C201.797 28.46 202.897 23.18 204.417 17.5C204.577 16.94 204.757 16.18 204.957 15.22C205.157 14.26 205.357 13.26 205.557 12.22C204.437 12.78 203.157 13.86 201.717 15.46C200.317 17.02 198.877 18.94 197.397 21.22C195.957 23.46 194.517 25.96 193.077 28.72C191.677 31.48 190.397 34.3 189.237 37.18C188.117 40.02 187.157 42.86 186.357 45.7C185.597 48.5 185.137 51.08 184.977 53.44ZM236.339 24.16C236.179 26.64 235.739 28.78 235.019 30.58C234.299 32.34 233.259 33.9 231.899 35.26C230.579 36.58 228.959 37.78 227.039 38.86C225.119 39.94 222.879 40.98 220.319 41.98C220.319 42.22 220.299 42.48 220.259 42.76C220.259 43 220.259 43.26 220.259 43.54C220.259 44.06 220.299 44.6 220.379 45.16C220.459 45.72 220.599 46.24 220.799 46.72C220.999 47.2 221.279 47.6 221.639 47.92C221.999 48.2 222.459 48.34 223.019 48.34C224.099 48.34 225.159 48.1 226.199 47.62C227.239 47.14 228.219 46.56 229.139 45.88C230.099 45.16 230.979 44.4 231.779 43.6C232.619 42.76 233.359 42 233.999 41.32C234.399 41.68 234.739 42.02 235.019 42.34C233.219 44.74 231.239 46.74 229.079 48.34C226.959 49.9 224.939 50.9 223.019 51.34C220.259 51.02 218.099 50.02 216.539 48.34C215.019 46.62 214.259 44.56 214.259 42.16C214.259 40.52 214.479 38.86 214.919 37.18C215.399 35.46 216.039 33.82 216.839 32.26C217.679 30.66 218.639 29.16 219.719 27.76C220.839 26.36 222.019 25.14 223.259 24.1C224.539 23.06 225.839 22.24 227.159 21.64C228.519 21.04 229.859 20.74 231.179 20.74C233.019 20.98 234.739 22.12 236.339 24.16ZM232.199 26.14C231.119 26.3 229.999 26.74 228.839 27.46C227.679 28.18 226.579 29.14 225.539 30.34C224.539 31.54 223.619 32.94 222.779 34.54C221.939 36.14 221.279 37.86 220.799 39.7C223.999 38.1 226.659 36.14 228.779 33.82C230.899 31.46 232.039 28.9 232.199 26.14ZM260.597 24.16C260.437 26.64 259.997 28.78 259.277 30.58C258.557 32.34 257.517 33.9 256.157 35.26C254.837 36.58 253.217 37.78 251.297 38.86C249.377 39.94 247.137 40.98 244.577 41.98C244.577 42.22 244.557 42.48 244.517 42.76C244.517 43 244.517 43.26 244.517 43.54C244.517 44.06 244.557 44.6 244.637 45.16C244.717 45.72 244.857 46.24 245.057 46.72C245.257 47.2 245.537 47.6 245.897 47.92C246.257 48.2 246.717 48.34 247.277 48.34C248.357 48.34 249.417 48.1 250.457 47.62C251.497 47.14 252.477 46.56 253.397 45.88C254.357 45.16 255.237 44.4 256.037 43.6C256.877 42.76 257.617 42 258.257 41.32C258.657 41.68 258.997 42.02 259.277 42.34C257.477 44.74 255.497 46.74 253.337 48.34C251.217 49.9 249.197 50.9 247.277 51.34C244.517 51.02 242.357 50.02 240.797 48.34C239.277 46.62 238.517 44.56 238.517 42.16C238.517 40.52 238.737 38.86 239.177 37.18C239.657 35.46 240.297 33.82 241.097 32.26C241.937 30.66 242.897 29.16 243.977 27.76C245.097 26.36 246.277 25.14 247.517 24.1C248.797 23.06 250.097 22.24 251.417 21.64C252.777 21.04 254.117 20.74 255.437 20.74C257.277 20.98 258.997 22.12 260.597 24.16ZM256.457 26.14C255.377 26.3 254.257 26.74 253.097 27.46C251.937 28.18 250.837 29.14 249.797 30.34C248.797 31.54 247.877 32.94 247.037 34.54C246.197 36.14 245.537 37.86 245.057 39.7C248.257 38.1 250.917 36.14 253.037 33.82C255.157 31.46 256.297 28.9 256.457 26.14ZM266.505 26.02C266.305 25.78 266.125 25.28 265.965 24.52C265.805 23.72 265.725 23.04 265.725 22.48C266.765 22.56 267.765 22.64 268.725 22.72C269.685 22.76 270.565 22.8 271.365 22.84C271.965 21.64 272.605 20.46 273.285 19.3C274.005 18.1 274.685 17.02 275.325 16.06C276.005 15.06 276.625 14.22 277.185 13.54C277.785 12.86 278.245 12.42 278.565 12.22C278.965 12.22 279.465 12.3 280.065 12.46C280.705 12.58 281.345 12.76 281.985 13C282.625 13.2 283.205 13.42 283.725 13.66C284.245 13.9 284.605 14.14 284.805 14.38C283.605 15.9 282.565 17.32 281.685 18.64C280.845 19.92 279.925 21.4 278.925 23.08C279.725 23.08 280.525 23.06 281.325 23.02C282.165 22.98 283.005 22.92 283.845 22.84C284.045 23.04 284.205 23.3 284.325 23.62C284.445 23.9 284.505 24.2 284.505 24.52C282.545 25.24 280.165 25.64 277.365 25.72C276.365 27.64 275.465 29.56 274.665 31.48C273.905 33.36 273.245 35.18 272.685 36.94C272.165 38.7 271.745 40.36 271.425 41.92C271.145 43.48 271.005 44.88 271.005 46.12C271.005 47.88 271.665 48.86 272.985 49.06C274.185 48.9 275.325 48.6 276.405 48.16C277.485 47.72 278.445 47.16 279.285 46.48C279.525 46.84 279.665 47.14 279.705 47.38C279.465 47.74 279.045 48.16 278.445 48.64C277.885 49.12 277.265 49.58 276.585 50.02C275.905 50.5 275.245 50.9 274.605 51.22C273.965 51.54 273.485 51.72 273.165 51.76C272.165 51.72 271.165 51.5 270.165 51.1C269.165 50.7 268.245 50.2 267.405 49.6C266.605 49 265.945 48.34 265.425 47.62C264.905 46.86 264.645 46.12 264.645 45.4C264.645 44.44 264.765 43.24 265.005 41.8C265.285 40.32 265.665 38.72 266.145 37C266.625 35.28 267.185 33.48 267.825 31.6C268.465 29.72 269.165 27.86 269.925 26.02H266.505ZM297.318 16C299.038 16.48 300.658 17.1 302.178 17.86C303.698 18.58 305.118 19.4 306.438 20.32C307.798 21.2 309.078 22.18 310.278 23.26C311.518 24.3 312.718 25.38 313.878 26.5C314.758 27.38 315.598 28.52 316.398 29.92C317.198 31.28 317.598 32.76 317.598 34.36C317.598 34.96 317.538 35.52 317.418 36.04C316.898 36.36 316.218 36.58 315.378 36.7C314.578 36.78 313.678 36.82 312.678 36.82C311.518 36.82 310.318 36.8 309.078 36.76C307.838 36.68 306.678 36.64 305.598 36.64C304.158 36.64 302.798 36.7 301.518 36.82C300.278 36.94 298.978 37.14 297.618 37.42C296.258 37.66 294.798 37.98 293.238 38.38C291.718 38.78 289.938 39.26 287.898 39.82C286.578 37.98 285.918 36.4 285.918 35.08C285.918 33.88 286.458 33 287.538 32.44C288.658 31.84 290.138 31.5 291.978 31.42C293.298 31.38 294.898 31.34 296.778 31.3C298.698 31.22 300.618 31.16 302.538 31.12C304.498 31.04 306.338 30.98 308.058 30.94C309.818 30.9 311.218 30.88 312.258 30.88C312.178 30.52 312.058 30.18 311.898 29.86C311.778 29.54 311.538 29.18 311.178 28.78C310.858 28.34 310.418 27.84 309.858 27.28C309.338 26.68 308.658 25.96 307.818 25.12C307.018 24.36 306.118 23.6 305.118 22.84C304.158 22.04 303.138 21.3 302.058 20.62C300.978 19.94 299.858 19.32 298.698 18.76C297.538 18.2 296.398 17.74 295.278 17.38C295.398 17.06 295.678 16.76 296.118 16.48C296.598 16.2 296.998 16.04 297.318 16Z" fill="#F3F2F9"/>
</svg>
